<?xml version="1.0" encoding="UTF-8"?>
<svg id="Capa_1" data-name="Capa 1" xmlns="http://www.w3.org/2000/svg" viewBox="0 0 3000 3000">
  <defs>
    <style>
      .cls-1 {
        fill: #582f0e;
      }
    </style>
  </defs>
  <path class="cls-1" d="m1500,2011.5c731.53,0,1324.56-229.01,1324.56-511.5,0-282.49-593.03-511.5-1324.56-511.5-731.53,0-1324.56,229.01-1324.56,511.5s593.03,511.5,1324.56,511.5Zm0-1010.05c599.82,0,1086.08,223.21,1086.08,498.55,0,275.34-486.25,498.55-1086.08,498.55-599.82,0-1086.08-223.21-1086.08-498.55,0-275.34,486.25-498.55,1086.08-498.55Z"/>
  <g>
    <path class="cls-1" d="m1498.22,1342.42h-145.05c-8.67-38.25-21.12-65.49-37.36-81.72-16.25-16.24-39.88-24.36-70.9-24.36-44.75,0-76.15,16.6-94.19,49.79-19.48,36.81-29.22,84.08-29.22,141.81s10.82,102.65,32.47,134.77c21.65,32.12,51.6,48.17,89.85,48.17,30.3,0,53.75-7.93,70.36-23.8,16.6-15.87,29.6-42.94,38.98-81.19h145.05c-7.22,70-33.75,125.4-79.57,166.17-45.83,40.76-104.1,61.16-174.83,61.16-86.61,0-153.91-26.69-201.9-80.11-47.99-53.4-71.98-128.45-71.98-225.16s24.17-176.81,72.53-231.66,116.2-82.28,203.53-82.28c73.6,0,132.6,20.21,176.98,60.63s69.46,96.35,75.24,167.79Z"/>
    <path class="cls-1" d="m2013.83,1464.89h-146.14c-.73-52.68-37.18-79.02-109.34-79.02-26.71,0-48,4.88-63.87,14.62-15.87,9.74-23.8,22.91-23.8,39.51,0,11.56,3.61,20.39,10.82,26.52,7.22,6.13,21.28,12.45,42.21,18.95l191.62,55.21c76.49,22.38,114.74,71.46,114.74,147.22,0,60.63-23.1,109.34-69.29,146.14-43.3,34.64-105.37,51.96-186.19,51.96-179.7,0-271.72-64.94-276.04-194.86h148.31c5.78,26.71,15.52,45.11,29.23,55.21,18.76,13.73,48.71,20.58,89.85,20.58,35.36,0,62.96-5.05,82.81-15.15,19.84-10.11,29.77-24.18,29.77-42.23,0-11.54-3.8-20.93-11.37-28.15-7.58-7.22-20.75-13.71-39.51-19.49l-180.78-56.29c-46.2-15.15-77.95-31.39-95.26-48.71-21.65-23.82-32.47-55.57-32.47-95.26,0-59.9,21.46-107.35,64.4-142.36,42.94-35,101.58-52.51,175.91-52.51,78.66,0,140.36,17.51,185.11,52.51,44.73,35.01,67.83,83.54,69.29,145.6Z"/>
  </g>
</svg>